name C:/MyDriveSym/Projects/mobilecap/Data\Session20210910_0002\mocap\ForceDataProcessed\walking3_forces.mot
datacolumns 19
datarows 27
range 0.00000000 0.01300000
endheader 
time	R_ground_force_vx	R_ground_force_vy	R_ground_force_vz	R_ground_force_px	R_ground_force_py	R_ground_force_pz	R_ground_torque_x	R_ground_torque_y	R_ground_torque_z	L_ground_force_vx	L_ground_force_vy	L_ground_force_vz	L_ground_force_px	L_ground_force_py	L_ground_force_pz	L_ground_torque_x	L_ground_torque_y	L_ground_torque_z	
          0.00000000	       -159.07956700	        628.35862000	         18.49505800	          0.05862700	          0.00600000	         -0.19485100	          0.00000000	          1.34801200	          0.00000000	          0.00000000	          0.00000000	          0.00000000	          0.62988700	          0.00000000	         -0.22276700	          0.00000000	          0.00000000	          0.00000000	
          0.00050000	       -159.47712900	        630.00823400	         18.16281000	          0.05862700	          0.00600000	         -0.19485100	          0.00000000	          1.33572700	          0.00000000	          0.00000000	          0.00000000	          0.00000000	          0.62988700	          0.00000000	         -0.22276700	          0.00000000	          0.00000000	          0.00000000	
          0.00100000	       -159.87586200	        631.66660300	         17.82851700	          0.05862700	          0.00600000	         -0.19485100	          0.00000000	          1.32347300	          0.00000000	          0.00000000	          0.00000000	          0.00000000	          0.62988700	          0.00000000	         -0.22276700	          0.00000000	          0.00000000	          0.00000000	
          0.00150000	       -160.27572300	        633.33362500	         17.49219800	          0.05862700	          0.00600000	         -0.19485100	          0.00000000	          1.31125100	          0.00000000	          0.00000000	          0.00000000	          0.00000000	          0.62988700	          0.00000000	         -0.22276700	          0.00000000	          0.00000000	          0.00000000	
          0.00200000	       -160.67667100	        635.00919200	         17.15386700	          0.05884600	          0.00600000	         -0.19477400	          0.00000000	          1.29906400	          0.00000000	          0.00000000	          0.00000000	          0.00000000	          0.62988700	          0.00000000	         -0.22276700	          0.00000000	          0.00000000	          0.00000000	
          0.00250000	       -161.07866200	        636.69319600	         16.81354400	          0.05906500	          0.00600000	         -0.19469800	          0.00000000	          1.28691300	          0.00000000	          0.00000000	          0.00000000	          0.00000000	          0.62988700	          0.00000000	         -0.22276700	          0.00000000	          0.00000000	          0.00000000	
          0.00300000	       -161.48165300	        638.38552900	         16.47124600	          0.05928500	          0.00600000	         -0.19462100	          0.00000000	          1.27480000	          0.00000000	          0.00000000	          0.00000000	          0.00000000	          0.62988700	          0.00000000	         -0.22276700	          0.00000000	          0.00000000	          0.00000000	
          0.00350000	       -161.88560100	        640.08607700	         16.12699200	          0.05950600	          0.00600000	         -0.19454500	          0.00000000	          1.26272800	          0.00000000	          0.00000000	          0.00000000	          0.00000000	          0.62988700	          0.00000000	         -0.22276700	          0.00000000	          0.00000000	          0.00000000	
          0.00400000	       -162.29045900	        641.79472600	         15.78080300	          0.05972600	          0.00600000	         -0.19446800	          0.00000000	          1.25069700	          0.00000000	          0.00000000	          0.00000000	          0.00000000	          0.62988700	          0.00000000	         -0.22276700	          0.00000000	          0.00000000	          0.00000000	
          0.00450000	       -162.69618500	        643.51136100	         15.43269900	          0.05994800	          0.00600000	         -0.19439000	          0.00000000	          1.23870900	          0.00000000	          0.00000000	          0.00000000	          0.00000000	          0.62988700	          0.00000000	         -0.22276700	          0.00000000	          0.00000000	          0.00000000	
          0.00500000	       -163.10273000	        645.23586400	         15.08270000	          0.06016900	          0.00600000	         -0.19431300	          0.00000000	          1.22676700	          0.00000000	          0.00000000	          0.00000000	          0.00000000	          0.62988700	          0.00000000	         -0.22276700	          0.00000000	          0.00000000	          0.00000000	
          0.00550000	       -163.51005100	        646.96811600	         14.73082800	          0.06039100	          0.00600000	         -0.19423600	          0.00000000	          1.21487300	          0.00000000	          0.00000000	          0.00000000	          0.00000000	          0.62988700	          0.00000000	         -0.22276700	          0.00000000	          0.00000000	          0.00000000	
          0.00600000	       -163.91809900	        648.70799500	         14.37710500	          0.06061400	          0.00600000	         -0.19415800	          0.00000000	          1.20302700	          0.00000000	          0.00000000	          0.00000000	          0.00000000	          0.62988700	          0.00000000	         -0.22276700	          0.00000000	          0.00000000	          0.00000000	
          0.00650000	       -164.32682800	        650.45537900	         14.02155500	          0.06083600	          0.00600000	         -0.19408000	          0.00000000	          1.19123300	          0.00000000	          0.00000000	          0.00000000	          0.00000000	          0.62988700	          0.00000000	         -0.22276700	          0.00000000	          0.00000000	          0.00000000	
          0.00700000	       -164.73619000	        652.21014400	         13.66420000	          0.06106000	          0.00600000	         -0.19400200	          0.00000000	          1.17949100	          0.00000000	          0.00000000	          0.00000000	          0.00000000	          0.62988700	          0.00000000	         -0.22276700	          0.00000000	          0.00000000	          0.00000000	
          0.00750000	       -165.14613700	        653.97216500	         13.30506600	          0.06128300	          0.00600000	         -0.19392400	          0.00000000	          1.16780400	          0.00000000	          0.00000000	          0.00000000	          0.00000000	          0.62988700	          0.00000000	         -0.22276700	          0.00000000	          0.00000000	          0.00000000	
          0.00800000	       -165.55662000	        655.74131500	         12.94417600	          0.06150700	          0.00600000	         -0.19384600	          0.00000000	          1.15617300	          0.00000000	          0.00000000	          0.00000000	          0.00000000	          0.62988700	          0.00000000	         -0.22276700	          0.00000000	          0.00000000	          0.00000000	
          0.00850000	       -165.96759100	        657.51746700	         12.58155800	          0.06173100	          0.00600000	         -0.19376800	          0.00000000	          1.14460000	          0.00000000	          0.00000000	          0.00000000	          0.00000000	          0.62988700	          0.00000000	         -0.22276700	          0.00000000	          0.00000000	          0.00000000	
          0.00900000	       -166.37899900	        659.30049100	         12.21723600	          0.06195500	          0.00600000	         -0.19369000	          0.00000000	          1.13308800	          0.00000000	          0.00000000	          0.00000000	          0.00000000	          0.62988700	          0.00000000	         -0.22276700	          0.00000000	          0.00000000	          0.00000000	
          0.00950000	       -166.79079600	        661.09025700	         11.85123800	          0.06218000	          0.00600000	         -0.19361100	          0.00000000	          1.12163700	          0.00000000	          0.00000000	          0.00000000	          0.00000000	          0.62988700	          0.00000000	         -0.22276700	          0.00000000	          0.00000000	          0.00000000	
          0.01000000	       -167.20293000	        662.88663500	         11.48359200	          0.06240500	          0.00600000	         -0.19353300	          0.00000000	          1.11025000	          0.00000000	          0.00000000	          0.00000000	          0.00000000	          0.62988700	          0.00000000	         -0.22276700	          0.00000000	          0.00000000	          0.00000000	
          0.01050000	       -167.61535100	        664.68949200	         11.11432600	          0.06263000	          0.00600000	         -0.19345400	          0.00000000	          1.09892800	          0.00000000	          0.00000000	          0.00000000	          0.00000000	          0.62988700	          0.00000000	         -0.22276700	          0.00000000	          0.00000000	          0.00000000	
          0.01100000	       -168.02800700	        666.49869500	         10.74346900	          0.06285500	          0.00600000	         -0.19337600	          0.00000000	          1.08767400	          0.00000000	          0.00000000	          0.00000000	          0.00000000	          0.62988700	          0.00000000	         -0.22276700	          0.00000000	          0.00000000	          0.00000000	
          0.01150000	       -168.44084700	        668.31411200	         10.37105000	          0.06308100	          0.00600000	         -0.19329700	          0.00000000	          1.07648900	          0.00000000	          0.00000000	          0.00000000	          0.00000000	          0.62988700	          0.00000000	         -0.22276700	          0.00000000	          0.00000000	          0.00000000	
          0.01200000	       -168.85381800	        670.13560900	          9.99710000	          0.06330600	          0.00600000	         -0.19321800	          0.00000000	          1.06537500	          0.00000000	          0.00000000	          0.00000000	          0.00000000	          0.62988700	          0.00000000	         -0.22276700	          0.00000000	          0.00000000	          0.00000000	
          0.01250000	       -169.26686700	        671.96304900	          9.62165100	          0.06353200	          0.00600000	         -0.19313900	          0.00000000	          1.05433400	          0.00000000	          0.00000000	          0.00000000	          0.00000000	          0.62988700	          0.00000000	         -0.22276700	          0.00000000	          0.00000000	          0.00000000	
          0.01300000	       -169.67994200	        673.79629800	          9.24473200	          0.06375800	          0.00600000	         -0.19306000	          0.00000000	          1.04336800	          0.00000000	          0.00000000	          0.00000000	          0.00000000	          0.62988700	          0.00000000	         -0.22276700	          0.00000000	          0.00000000	          0.00000000	
